<svg xmlns="http://www.w3.org/2000/svg" xmlns:xlink="http://www.w3.org/1999/xlink" preserveAspectRatio="xMidYMid" width="22" height="22" viewBox="0 0 22 22">
  <defs>
    <style>

      .cls-2 {
        fill: #63757e;
      }
    </style>
  </defs>
  <path d="M12.086,18.000 C10.304,18.000 8.648,17.476 7.250,16.583 C7.250,16.583 2.375,21.458 2.375,21.458 C2.375,21.458 -0.012,19.070 -0.012,19.070 C-0.012,19.070 4.795,14.264 4.795,14.264 C3.722,12.782 3.082,10.966 3.082,8.996 C3.082,4.024 7.113,-0.007 12.086,-0.007 C17.059,-0.007 21.090,4.024 21.090,8.996 C21.090,13.969 17.059,18.000 12.086,18.000 ZM12.052,3.064 C8.782,3.064 6.131,5.715 6.131,8.985 C6.131,12.255 8.782,14.906 12.052,14.906 C15.322,14.906 17.973,12.255 17.973,8.985 C17.973,5.715 15.322,3.064 12.052,3.064 Z" id="path-1" class="cls-2" fill-rule="evenodd"/>
</svg>
